<?xml version="1.0" encoding="utf-8"?>
<!-- Generator: Adobe Illustrator 22.1.0, SVG Export Plug-In . SVG Version: 6.00 Build 0)  -->
<svg version="1.1" id="Lag_1" xmlns="http://www.w3.org/2000/svg" xmlns:xlink="http://www.w3.org/1999/xlink" x="0px" y="0px"
	 viewBox="0 0 1920 1080" style="enable-background:new 0 0 1920 1080;" xml:space="preserve">
<style type="text/css">
	.st0{fill:#B7C7D6;}
	.st1{fill:#198794;}
	.st2{fill:#1B2737;}
	.st3{fill:#EA967E;}
	.st4{fill:#DA4976;}
	.st5{fill:#B4183F;}
	.st6{fill:#F5C6A1;}
	.st7{fill:#5D6572;}
	.st8{fill:#FCC033;}
	.st9{fill:#DD3A1D;}
	.st10{fill:#FDF39F;}
</style>
<path class="st0" d="M848.4,930.4h730c22.1,0,40.2,18.1,40.2,40.2v0c0,22.1-18.1,40.2-40.2,40.2h-730c-22.1,0-40.2-18.1-40.2-40.2v0
	C808.1,948.5,826.2,930.4,848.4,930.4z"/>
<g>
	<path class="st1" d="M1006.6,908.9l-17.5-17.5c-21.6-21.6-21.6-56.9,0-78.5l174.3-174.3c21.6-21.6,56.9-21.6,78.5,0l17.5,17.5
		c21.6,21.6,21.6,56.9,0,78.5L1085,908.9C1063.5,930.5,1028.1,930.5,1006.6,908.9z"/>
	<path class="st1" d="M1108.6,993.2H972.9v-142c0-30.5,25-55.5,55.5-55.5h24.7c30.5,0,55.5,25,55.5,55.5V993.2z"/>
	<path class="st2" d="M906.5,993.5c0-46.7,37.2-84.6,83.1-84.6c45.9,0,83.1,37.9,83.1,84.6H906.5z"/>
</g>
<g>
	<path class="st1" d="M1350,908.9l17.5-17.5c21.6-21.6,21.6-56.9,0-78.5l-174.3-174.3c-21.6-21.6-56.9-21.6-78.5,0l-17.5,17.5
		c-21.6,21.6-21.6,56.9,0,78.5l174.3,174.3C1293.1,930.5,1328.4,930.5,1350,908.9z"/>
	<path class="st1" d="M1247.9,993.2h135.7v-142c0-30.5-25-55.5-55.5-55.5h-24.7c-30.5,0-55.5,25-55.5,55.5V993.2z"/>
	<path class="st2" d="M1450,993.5c0-46.7-37.2-84.6-83.1-84.6s-83.1,37.9-83.1,84.6H1450z"/>
</g>
<g>
	<path class="st3" d="M753.6,600h157.8c34.4,0,62.5,28.1,62.5,62.5v7.8c0,34.4-28.1,62.5-62.5,62.5H753.6
		c-34.4,0-62.5-28.1-62.5-62.5v-7.8C691.1,628.1,719.2,600,753.6,600z"/>
</g>
<g>
	<path class="st3" d="M872,615.8L975.7,497c22.6-25.9,62.3-28.6,88.2-6l5.9,5.1c25.9,22.6,28.6,62.3,6,88.2L972,703.1
		c-22.6,25.9-62.3,28.6-88.2,6L878,704C852.1,681.4,849.4,641.7,872,615.8z"/>
</g>
<path class="st1" d="M1191.8,880.1H1138c-70.1,0-127.5-57.4-127.5-127.5V648.4c0-70.1,57.4-127.5,127.5-127.5h53.9
	c70.1,0,127.5,57.4,127.5,127.5v104.2C1319.3,822.7,1262,880.1,1191.8,880.1z"/>
<rect x="1062.9" y="506.6" transform="matrix(6.123234e-17 -1 1 6.123234e-17 736.2407 1807.9941)" class="st4" width="418.5" height="58.7"/>
<circle class="st5" cx="1278" cy="349" r="41.4"/>
<path class="st6" d="M1121.6,611.1h-3c-86,0-156.4-70.4-156.4-156.4v-92.2c0-86,70.4-156.4,156.4-156.4h3
	c86,0,156.4,70.4,156.4,156.4v92.2C1278,540.8,1207.6,611.1,1121.6,611.1z"/>
<path class="st2" d="M1258.3,495.5H1245c-13.2,0-24.1-10.8-24.1-24.1V304.6c0-13.2,10.8-24.1,24.1-24.1h13.3
	c13.2,0,24.1,10.8,24.1,24.1v166.8C1282.4,484.7,1271.5,495.5,1258.3,495.5z"/>
<rect x="957.9" y="317.6" class="st4" width="324.5" height="70.4"/>
<path class="st2" d="M1277,247.1v7.5c0,34.6-28.3,63-63,63H968c-34.6,0-63-28.3-63-63v-7.5c0-34.6,28.3-63,63-63h246
	C1248.6,184.1,1277,212.5,1277,247.1z"/>
<circle cx="1004.4" cy="439.1" r="21.7"/>
<circle cx="1091" cy="439.1" r="21.7"/>
<circle class="st6" cx="1232.3" cy="401.8" r="33.2"/>
<g>
	<path class="st3" d="M1353.9,739.9L1235,636.2c-25.9-22.6-28.6-62.3-6-88.2l5.1-5.9c22.6-25.9,62.3-28.6,88.2-6l118.9,103.7
		c25.9,22.6,28.6,62.3,6,88.2l-5.1,5.9C1419.5,759.8,1379.8,762.5,1353.9,739.9z"/>
</g>
<path class="st2" d="M1303.7,649.5H619V520.9h684.7c22.7,0,41.3,18.6,41.3,41.3v46.1C1344.9,630.9,1326.4,649.5,1303.7,649.5z"/>
<path class="st6" d="M1400,755.3h-269.1c-34.4,0-62.5-28.1-62.5-62.5V685c0-34.4,28.1-62.5,62.5-62.5H1400
	c34.4,0,62.5,28.1,62.5,62.5v7.8C1462.5,727.2,1434.4,755.3,1400,755.3z"/>
<path class="st6" d="M1122.2,673.9h-73.5c-14.1,0-25.7-11.6-25.7-25.7v0c0-14.1,11.6-25.7,25.7-25.7h73.5
	c14.1,0,25.7,11.6,25.7,25.7v0C1147.9,662.3,1136.4,673.9,1122.2,673.9z"/>
<g>
	<path class="st3" d="M752,603.9h50.5c34.4,0,62.5,28.1,62.5,62.5v0c0,34.4-28.1,62.5-62.5,62.5H752c-34.4,0-62.5-28.1-62.5-62.5v0
		C689.5,632,717.6,603.9,752,603.9z"/>
</g>
<path class="st7" d="M1006.3,579.6h-147c-9.2,0-16.8-7.6-16.8-16.8v-10.2c0-9.2,7.6-16.8,16.8-16.8h147c9.2,0,16.8,7.6,16.8,16.8
	v10.2C1023.1,572.1,1015.5,579.6,1006.3,579.6z"/>
<rect x="520" y="545.3" class="st2" width="99" height="48.7"/>
<rect x="619" y="485.6" class="st2" width="76.5" height="35.2"/>
<path class="st1" d="M396.5,875.9L396.5,875.9c-1.2,0-2.1,1-2.1,2.1l0,0c0,1.2,1,2.1,2.1,2.1l0,0c1.2,0,2.1-1,2.1-2.1l0,0
	C398.6,876.8,397.7,875.9,396.5,875.9z"/>
<path class="st8" d="M198.9,614.7h254.9c24.8,0,45.1-20.3,45.1-45.1v0c0-24.8-20.3-45.1-45.1-45.1H198.9
	c-24.8,0-45.1,20.3-45.1,45.1v0C153.8,594.4,174.1,614.7,198.9,614.7z"/>
<path class="st9" d="M315.9,548.4h129.7c10,0,18.1,8.2,18.1,18.1v6.2c0,10-8.2,18.1-18.1,18.1H315.9c-10,0-18.1-8.2-18.1-18.1v-6.2
	C297.8,556.5,305.9,548.4,315.9,548.4z"/>
<path class="st0" d="M886.3,469.4H778.6c-9.2,0-16.8-7.6-16.8-16.8v-4.7c0-9.2,7.6-16.8,16.8-16.8h107.7c9.2,0,16.8,7.6,16.8,16.8
	v4.7C903.1,461.8,895.6,469.4,886.3,469.4z"/>
<path class="st0" d="M766.6,364.1l-105-24.3c-9-2.1-14.6-11.1-12.6-20.1l1.1-4.6c2.1-9,11.1-14.6,20.1-12.6l105,24.3
	c9,2.1,14.6,11.1,12.6,20.1l-1.1,4.6C784.7,360.6,775.6,366.2,766.6,364.1z"/>
<path class="st0" d="M848.4,189.2l-86.3,64.5c-7.4,5.5-18,4-23.5-3.4l-2.8-3.8c-5.5-7.4-4-18,3.4-23.5l86.3-64.5
	c7.4-5.5,18-4,23.5,3.4l2.8,3.8C857.3,173.1,855.8,183.7,848.4,189.2z"/>
<path class="st0" d="M1105.5,131l-93.3-53.9c-8-4.6-10.8-14.9-6.1-22.9l2.4-4.1c4.6-8,14.9-10.8,22.9-6.1l93.3,53.9
	c8,4.6,10.8,14.9,6.1,22.9l-2.4,4.1C1123.8,132.8,1113.5,135.6,1105.5,131z"/>
<path class="st0" d="M1341,183.8l60.7-89c5.2-7.6,15.7-9.6,23.3-4.4l3.9,2.7c7.6,5.2,9.6,15.7,4.4,23.3l-60.7,89
	c-5.2,7.6-15.7,9.6-23.3,4.4l-3.9-2.7C1337.8,201.9,1335.8,191.4,1341,183.8z"/>
<path class="st10" d="M547.5,930.4H732c22.1,0,40.2,18.1,40.2,40.2v0c0,22.1-18.1,40.2-40.2,40.2H547.5c-22.1,0-40.2-18.1-40.2-40.2
	v0C507.2,948.5,525.3,930.4,547.5,930.4z"/>
</svg>
